<?xml version="1.0" encoding="utf-8"?>
<!-- Generator: Adobe Illustrator 23.0.1, SVG Export Plug-In . SVG Version: 6.00 Build 0)  -->
<svg version="1.1" xmlns="http://www.w3.org/2000/svg" xmlns:xlink="http://www.w3.org/1999/xlink" x="0px" y="0px"
	 viewBox="0 0 36 16" style="enable-background:new 0 0 36 16;" xml:space="preserve">
<style type="text/css">
	.st0{fill:#FF5F00;}
	.st1{fill:#EB001B;}
	.st2{fill:#F79E1B;}
</style>
<g id="Layer_1">
	<g transform="translate(1565.7 -1106.8)">
		<g transform="matrix(3.1437 0 0 3.1437 -4835.7 -1027.6)">
			<path class="st0" d="M1045.1,683.4h-2.1v-3.8h2.1V683.4z"/>
			<g transform="matrix(1.25 0 0 -1.25 1064.5 698.59)">
				<path class="st1" d="M-17.1,13.7c0,0.6,0.3,1.2,0.7,1.5c-0.3,0.3-0.7,0.4-1.2,0.4c-1.1,0-1.9-0.9-1.9-1.9s0.9-1.9,1.9-1.9
					c0.4,0,0.9,0.2,1.2,0.4C-16.8,12.5-17.1,13.1-17.1,13.7"/>
			</g>
			<g transform="matrix(1.25 0 0 -1.25 1103.8 698.59)">
				<path class="st2" d="M-44.7,13.7c0-1.1-0.9-1.9-1.9-1.9c-0.4,0-0.9,0.2-1.2,0.4c0.4,0.4,0.7,0.9,0.7,1.5s-0.3,1.2-0.7,1.5
					c0.3,0.3,0.7,0.4,1.2,0.4C-45.5,15.6-44.7,14.7-44.7,13.7"/>
			</g>
		</g>
	</g>
</g>
<g id="Layer_2">
</g>
</svg>
