<?xml version="1.0" encoding="utf-8"?>
<!-- Generator: Adobe Illustrator 23.0.1, SVG Export Plug-In . SVG Version: 6.00 Build 0)  -->
<svg version="1.1" xmlns="http://www.w3.org/2000/svg" xmlns:xlink="http://www.w3.org/1999/xlink" x="0px" y="0px"
	 viewBox="0 0 36 16" style="enable-background:new 0 0 36 16;" xml:space="preserve">
<style type="text/css">
	.st0{fill-rule:evenodd;clip-rule:evenodd;fill:#0161AB;}
	.st1{fill-rule:evenodd;clip-rule:evenodd;fill:#0066B2;}
	.st2{fill:#0066B2;}
	.st3{fill:#F9A533;}
</style>
<g id="Layer_1">
	<path class="st0" d="M33.4,11.9c-0.3,0-0.5,0.2-0.5,0.5c0,0.3,0.2,0.5,0.5,0.5c0.3,0,0.5-0.2,0.5-0.5
		C33.9,12.2,33.7,11.9,33.4,11.9z M33.8,12.5c0,0.2-0.2,0.4-0.4,0.4c-0.2,0-0.4-0.2-0.4-0.4c0-0.2,0.2-0.4,0.4-0.4
		C33.6,12,33.8,12.2,33.8,12.5z M33.3,12.7h-0.1v-0.5h0.2c0,0,0.1,0,0.1,0c0,0,0.1,0.1,0.1,0.1c0,0.1,0,0.1-0.1,0.1l0.1,0.2h-0.1
		l-0.1-0.2h-0.1V12.7z M33.4,12.4L33.4,12.4l-0.1-0.1h0.1c0,0,0,0,0,0c0,0,0,0,0.1,0C33.4,12.3,33.5,12.3,33.4,12.4
		C33.5,12.4,33.4,12.4,33.4,12.4C33.4,12.4,33.4,12.4,33.4,12.4C33.4,12.4,33.4,12.4,33.4,12.4z"/>
	<path class="st1" d="M29.8,11.5l0.3,1.5h2.4L30.4,3h-2.1c-1,0-1.2,0.8-1.2,0.8l-4,9.3h2.8l0.6-1.5H29.8z M29.4,9.5h-2.2l1.4-3.8
		L29.4,9.5z"/>
	<path class="st2" d="M23.3,5.4l0.4-2.2c0,0-1.2-0.4-2.4-0.4c-1.3,0-4.4,0.6-4.4,3.3c0,2.6,3.7,2.6,3.7,4c0,1.4-3.3,1.1-4.4,0.3
		l-0.4,2.3c0,0,1.2,0.6,3,0.6c1.8,0,4.5-0.9,4.5-3.4c0-2.6-3.7-2.9-3.7-4C19.6,4.6,22.2,4.8,23.3,5.4z"/>
	<path class="st2" d="M14.2,13h-2.6L13.2,3h2.6L14.2,13z"/>
	<path class="st2" d="M2.2,3H0.1l0,0.2c0,0,1.3,0.3,2.8,1.2L5.2,13h2.8L12.1,3H9.3L6.8,9.9L6.5,8.4v0L5.6,3.9c0,0-0.1-0.9-1.3-0.9
		H2.2H0.1l0,0.2c0,0,2,0.4,3.9,2c1.8,1.5,2.4,3.3,2.4,3.3L5.6,3.9c0,0-0.1-0.9-1.3-0.9H2.2z"/>
	<path class="st3" d="M6.5,8.4L5.6,3.9c0,0-0.1-0.9-1.3-0.9H0.1l0,0.2c0,0,2,0.4,3.9,2C5.9,6.6,6.5,8.4,6.5,8.4z"/>
</g>
<g id="Layer_2">
</g>
</svg>
